<svg xmlns="http://www.w3.org/2000/svg" version="1.1" viewBox="-5.0 -10.0 110.0 135.0" filter="invert(1)">
 <g fill-rule="evenodd">
  <path d="m18.746 93.723c-3.4492 0-6.2461-2.7969-6.2461-6.2461v-74.977c0-3.4492 2.7969-6.25 6.2461-6.25 3.4492 0 6.2461 2.7969 6.2461 6.25v74.977c0 3.4492-2.7969 6.2461-6.2461 6.2461z"/>
  <path d="m34.277 54.668c-1.3516-1.1836-2.125-2.8906-2.125-4.6836s0.77344-3.5039 2.125-4.6836c9.7031-8.4883 30.344-26.551 42.871-37.512 1.8398-1.6094 4.4453-1.9922 6.6719-0.98437 2.2227 1.0078 3.6523 3.2266 3.6523 5.668v75.023c0 2.4414-1.4297 4.6602-3.6523 5.668-2.2227 1.0078-4.832 0.625-6.6719-0.98437-12.523-10.961-33.168-29.023-42.871-37.512z"/>
 </g>
<text x="0.0" y="117.5" font-size="5.0" font-weight="bold" font-family="Arbeit Regular, Helvetica, Arial-Unicode, Arial, Sans-serif" fill="#000000">by Muhammad Nur Auliady Pamungkas</text><text x="0.0" y="122.5" font-size="5.0" font-weight="bold" font-family="Arbeit Regular, Helvetica, Arial-Unicode, Arial, Sans-serif" fill="#000000">from Noun Project</text></svg>